<svg version="1.1" viewBox="0.0 0.0 960.0 540.0" fill="none" stroke="none" stroke-linecap="square" stroke-miterlimit="10" xmlns:xlink="http://www.w3.org/1999/xlink" xmlns="http://www.w3.org/2000/svg"><clipPath id="g9192fcdef5_2_75.0"><path d="m0 0l960.0 0l0 540.0l-960.0 0l0 -540.0z" clip-rule="nonzero"/></clipPath><g clip-path="url(#g9192fcdef5_2_75.0)"><path fill="#ffffff" d="m0 0l960.0 0l0 540.0l-960.0 0z" fill-rule="evenodd"/><path fill="#4472c4" d="m354.1949 326.04752l0 0c0 -7.7582397 6.289276 -14.047516 14.047516 -14.047516l172.9758 0c3.725647 0 7.298706 1.480011 9.933105 4.1144104c2.6344604 2.63443 4.114441 6.207489 4.114441 9.933105l0 56.188416c0 7.7582397 -6.2893066 14.047516 -14.047546 14.047516l-172.9758 0c-7.7582397 0 -14.047516 -6.289276 -14.047516 -14.047516z" fill-rule="evenodd"/><path stroke="#000000" stroke-width="4.0" stroke-miterlimit="800.0" stroke-linecap="butt" d="m354.1949 326.04752l0 0c0 -7.7582397 6.289276 -14.047516 14.047516 -14.047516l172.9758 0c3.725647 0 7.298706 1.480011 9.933105 4.1144104c2.6344604 2.63443 4.114441 6.207489 4.114441 9.933105l0 56.188416c0 7.7582397 -6.2893066 14.047516 -14.047546 14.047516l-172.9758 0c-7.7582397 0 -14.047516 -6.289276 -14.047516 -14.047516z" fill-rule="evenodd"/><path fill="#ffffff" d="m434.61987 343.99924q0 1.53125 -0.390625 2.671875q-0.390625 1.140625 -1.140625 1.890625q-0.75 0.75 -1.84375 1.125q-1.09375 0.375 -2.609375 0.375l-2.484375 0q-0.21875 0 -0.40625 -0.140625q-0.1875 -0.140625 -0.1875 -0.5l0 -10.515625q0 -0.34375 0.1875 -0.484375q0.1875 -0.140625 0.40625 -0.140625l2.65625 0q1.53125 0 2.59375 0.390625q1.0625 0.390625 1.765625 1.140625q0.71875 0.734375 1.078125 1.796875q0.375 1.0625 0.375 2.390625zm-1.640625 0.0625q0 -0.953125 -0.234375 -1.78125q-0.234375 -0.828125 -0.75 -1.421875q-0.5 -0.609375 -1.28125 -0.9375q-0.765625 -0.34375 -1.984375 -0.34375l-1.59375 0l0 9.171875l1.609375 0q1.125 0 1.890625 -0.28125q0.78125 -0.28125 1.296875 -0.859375q0.53125 -0.59375 0.78125 -1.46875q0.265625 -0.875 0.265625 -2.078125zm10.056091 5.78125q0 0.109375 -0.078125 0.171875q-0.0625 0.046875 -0.1875 0.0625q-0.125 0.03125 -0.375 0.03125q-0.234375 0 -0.375 -0.03125q-0.140625 -0.015625 -0.203125 -0.0625q-0.0625 -0.0625 -0.0625 -0.171875l0 -0.8125q-0.546875 0.5625 -1.203125 0.890625q-0.65625 0.3125 -1.390625 0.3125q-0.65625 0 -1.1875 -0.171875q-0.515625 -0.15625 -0.890625 -0.46875q-0.359375 -0.328125 -0.5625 -0.796875q-0.203125 -0.46875 -0.203125 -1.0625q0 -0.6875 0.28125 -1.1875q0.28125 -0.515625 0.796875 -0.84375q0.53125 -0.34375 1.296875 -0.515625q0.765625 -0.171875 1.734375 -0.171875l1.125 0l0 -0.640625q0 -0.46875 -0.109375 -0.828125q-0.09375 -0.375 -0.328125 -0.609375q-0.21875 -0.25 -0.578125 -0.359375q-0.34375 -0.125 -0.859375 -0.125q-0.5625 0 -1.0 0.140625q-0.4375 0.125 -0.78125 0.28125q-0.328125 0.15625 -0.546875 0.296875q-0.21875 0.125 -0.328125 0.125q-0.078125 0 -0.140625 -0.03125q-0.046875 -0.046875 -0.09375 -0.109375q-0.03125 -0.078125 -0.0625 -0.1875q-0.015625 -0.125 -0.015625 -0.25q0 -0.234375 0.03125 -0.359375q0.03125 -0.140625 0.15625 -0.25q0.125 -0.125 0.421875 -0.28125q0.3125 -0.171875 0.703125 -0.296875q0.390625 -0.125 0.84375 -0.21875q0.46875 -0.09375 0.953125 -0.09375q0.875 0 1.484375 0.203125q0.625 0.203125 1.0 0.59375q0.390625 0.390625 0.5625 0.96875q0.171875 0.5625 0.171875 1.328125l0 5.53125zm-1.484375 -3.75l-1.28125 0q-0.625 0 -1.078125 0.109375q-0.453125 0.109375 -0.765625 0.3125q-0.296875 0.203125 -0.4375 0.5q-0.140625 0.28125 -0.140625 0.65625q0 0.625 0.40625 1.015625q0.40625 0.375 1.140625 0.375q0.59375 0 1.09375 -0.296875q0.5 -0.3125 1.0625 -0.921875l0 -1.75zm13.404114 3.703125q-0.03125 0.09375 -0.09375 0.15625q-0.0625 0.0625 -0.1875 0.109375q-0.109375 0.03125 -0.296875 0.03125q-0.171875 0.015625 -0.4375 0.015625q-0.1875 0 -0.34375 0q-0.15625 0 -0.265625 -0.015625q-0.109375 -0.015625 -0.1875 -0.03125q-0.0625 -0.03125 -0.125 -0.0625q-0.046875 -0.046875 -0.09375 -0.09375q-0.03125 -0.046875 -0.046875 -0.125l-3.859375 -10.953125q-0.078125 -0.203125 -0.078125 -0.3125q0 -0.125 0.078125 -0.1875q0.078125 -0.078125 0.265625 -0.09375q0.1875 -0.015625 0.484375 -0.015625q0.265625 0 0.40625 0.015625q0.15625 0.015625 0.234375 0.0625q0.09375 0.03125 0.125 0.09375q0.046875 0.046875 0.078125 0.140625l3.375 9.921875l0.015625 0l3.28125 -9.90625q0.03125 -0.09375 0.0625 -0.15625q0.046875 -0.0625 0.140625 -0.09375q0.09375 -0.046875 0.25 -0.0625q0.171875 -0.015625 0.4375 -0.015625q0.28125 0 0.4375 0.03125q0.171875 0.015625 0.234375 0.078125q0.0625 0.0625 0.046875 0.1875q-0.015625 0.125 -0.09375 0.328125l-3.84375 10.953125zm7.1477356 0.03125q0 0.078125 -0.03125 0.140625q-0.03125 0.046875 -0.125 0.078125q-0.078125 0.03125 -0.21875 0.046875q-0.140625 0.015625 -0.375 0.015625q-0.21875 0 -0.375 -0.015625q-0.140625 -0.015625 -0.234375 -0.046875q-0.078125 -0.03125 -0.109375 -0.078125q-0.03125 -0.0625 -0.03125 -0.140625l0 -8.1875q0 -0.0625 0.03125 -0.109375q0.03125 -0.0625 0.109375 -0.09375q0.09375 -0.046875 0.234375 -0.0625q0.15625 -0.015625 0.375 -0.015625q0.234375 0 0.375 0.015625q0.140625 0.015625 0.21875 0.0625q0.09375 0.03125 0.125 0.09375q0.03125 0.046875 0.03125 0.109375l0 8.1875zm0.171875 -10.96875q0 0.53125 -0.203125 0.734375q-0.1875 0.1875 -0.734375 0.1875q-0.515625 0 -0.71875 -0.1875q-0.1875 -0.1875 -0.1875 -0.703125q0 -0.53125 0.1875 -0.71875q0.203125 -0.203125 0.75 -0.203125q0.515625 0 0.703125 0.1875q0.203125 0.1875 0.203125 0.703125zm9.672089 10.96875q0 0.078125 -0.046875 0.140625q-0.03125 0.046875 -0.109375 0.078125q-0.078125 0.03125 -0.234375 0.046875q-0.140625 0.015625 -0.359375 0.015625q-0.21875 0 -0.375 -0.015625q-0.140625 -0.015625 -0.234375 -0.046875q-0.078125 -0.03125 -0.109375 -0.078125q-0.03125 -0.0625 -0.03125 -0.140625l0 -4.796875q0 -0.703125 -0.109375 -1.125q-0.109375 -0.4375 -0.328125 -0.734375q-0.203125 -0.3125 -0.546875 -0.46875q-0.328125 -0.171875 -0.765625 -0.171875q-0.5625 0 -1.125 0.40625q-0.5625 0.390625 -1.1875 1.171875l0 5.71875q0 0.078125 -0.03125 0.140625q-0.03125 0.046875 -0.125 0.078125q-0.078125 0.03125 -0.21875 0.046875q-0.140625 0.015625 -0.375 0.015625q-0.21875 0 -0.375 -0.015625q-0.140625 -0.015625 -0.234375 -0.046875q-0.078125 -0.03125 -0.109375 -0.078125q-0.03125 -0.0625 -0.03125 -0.140625l0 -8.1875q0 -0.078125 0.03125 -0.125q0.03125 -0.046875 0.109375 -0.09375q0.078125 -0.046875 0.203125 -0.046875q0.140625 -0.015625 0.34375 -0.015625q0.203125 0 0.328125 0.015625q0.140625 0 0.203125 0.046875q0.078125 0.046875 0.109375 0.09375q0.03125 0.046875 0.03125 0.125l0 1.078125q0.6875 -0.765625 1.375 -1.125q0.6875 -0.375 1.390625 -0.375q0.828125 0 1.375 0.28125q0.5625 0.28125 0.90625 0.75q0.359375 0.46875 0.5 1.09375q0.15625 0.609375 0.15625 1.484375l0 5.0zm8.629944 -1.234375q0 0.140625 -0.015625 0.265625q0 0.109375 -0.03125 0.1875q-0.015625 0.078125 -0.046875 0.140625q-0.03125 0.0625 -0.140625 0.171875q-0.109375 0.109375 -0.390625 0.28125q-0.265625 0.171875 -0.609375 0.3125q-0.34375 0.125 -0.75 0.203125q-0.390625 0.078125 -0.828125 0.078125q-0.875 0 -1.5625 -0.28125q-0.6875 -0.296875 -1.15625 -0.859375q-0.453125 -0.5625 -0.703125 -1.375q-0.234375 -0.8125 -0.234375 -1.890625q0 -1.203125 0.296875 -2.0625q0.296875 -0.875 0.8125 -1.4375q0.515625 -0.5625 1.203125 -0.828125q0.703125 -0.265625 1.515625 -0.265625q0.390625 0 0.765625 0.078125q0.375 0.0625 0.671875 0.1875q0.3125 0.125 0.546875 0.28125q0.25 0.140625 0.359375 0.25q0.109375 0.109375 0.140625 0.1875q0.046875 0.0625 0.078125 0.15625q0.03125 0.078125 0.03125 0.1875q0.015625 0.109375 0.015625 0.265625q0 0.359375 -0.078125 0.5q-0.078125 0.140625 -0.203125 0.140625q-0.140625 0 -0.3125 -0.140625q-0.171875 -0.15625 -0.453125 -0.34375q-0.265625 -0.1875 -0.65625 -0.328125q-0.390625 -0.15625 -0.921875 -0.15625q-1.078125 0 -1.65625 0.84375q-0.578125 0.828125 -0.578125 2.40625q0 0.796875 0.140625 1.390625q0.15625 0.59375 0.4375 1.0q0.296875 0.40625 0.71875 0.609375q0.4375 0.1875 0.984375 0.1875q0.515625 0 0.90625 -0.15625q0.390625 -0.171875 0.671875 -0.359375q0.296875 -0.203125 0.484375 -0.359375q0.203125 -0.171875 0.3125 -0.171875q0.0625 0 0.109375 0.046875q0.046875 0.03125 0.078125 0.125q0.03125 0.078125 0.03125 0.21875q0.015625 0.125 0.015625 0.3125zm3.4981995 1.234375q0 0.078125 -0.03125 0.140625q-0.03125 0.046875 -0.125 0.078125q-0.078125 0.03125 -0.21875 0.046875q-0.140625 0.015625 -0.375 0.015625q-0.21875 0 -0.375 -0.015625q-0.140625 -0.015625 -0.234375 -0.046875q-0.078125 -0.03125 -0.109375 -0.078125q-0.03125 -0.0625 -0.03125 -0.140625l0 -8.1875q0 -0.0625 0.03125 -0.109375q0.03125 -0.0625 0.109375 -0.09375q0.09375 -0.046875 0.234375 -0.0625q0.15625 -0.015625 0.375 -0.015625q0.234375 0 0.375 0.015625q0.140625 0.015625 0.21875 0.0625q0.09375 0.03125 0.125 0.09375q0.03125 0.046875 0.03125 0.109375l0 8.1875zm0.171875 -10.96875q0 0.53125 -0.203125 0.734375q-0.1875 0.1875 -0.734375 0.1875q-0.515625 0 -0.71875 -0.1875q-0.1875 -0.1875 -0.1875 -0.703125q0 -0.53125 0.1875 -0.71875q0.203125 -0.203125 0.75 -0.203125q0.515625 0 0.703125 0.1875q0.203125 0.1875 0.203125 0.703125z" fill-rule="nonzero"/><path fill="#ffffff" d="m407.99167 371.82736q0 0.078125 -0.046875 0.140625q-0.03125 0.046875 -0.125 0.078125q-0.09375 0.03125 -0.234375 0.046875q-0.140625 0.015625 -0.359375 0.015625q-0.21875 0 -0.375 -0.015625q-0.140625 -0.015625 -0.234375 -0.046875q-0.078125 -0.03125 -0.125 -0.078125q-0.03125 -0.0625 -0.03125 -0.140625l0 -10.265625l-0.015625 0l-4.203125 10.3125q-0.015625 0.0625 -0.078125 0.109375q-0.046875 0.046875 -0.140625 0.078125q-0.09375 0.03125 -0.234375 0.03125q-0.125 0.015625 -0.3125 0.015625q-0.1875 0 -0.328125 -0.015625q-0.125 -0.015625 -0.21875 -0.046875q-0.09375 -0.03125 -0.15625 -0.078125q-0.046875 -0.046875 -0.0625 -0.09375l-4.015625 -10.3125l0 0l0 10.265625q0 0.078125 -0.046875 0.140625q-0.03125 0.046875 -0.125 0.078125q-0.09375 0.03125 -0.234375 0.046875q-0.140625 0.015625 -0.375 0.015625q-0.21875 0 -0.375 -0.015625q-0.140625 -0.015625 -0.234375 -0.046875q-0.078125 -0.03125 -0.109375 -0.078125q-0.03125 -0.0625 -0.03125 -0.140625l0 -10.84375q0 -0.375 0.203125 -0.53125q0.203125 -0.171875 0.453125 -0.171875l0.9375 0q0.296875 0 0.515625 0.0625q0.21875 0.046875 0.375 0.171875q0.171875 0.109375 0.28125 0.296875q0.109375 0.171875 0.1875 0.421875l3.421875 8.53125l0.046875 0l3.546875 -8.5q0.109375 -0.28125 0.21875 -0.46875q0.125 -0.1875 0.265625 -0.296875q0.140625 -0.125 0.3125 -0.171875q0.171875 -0.046875 0.390625 -0.046875l1.0 0q0.140625 0 0.25 0.046875q0.125 0.03125 0.21875 0.125q0.09375 0.078125 0.140625 0.21875q0.0625 0.125 0.0625 0.3125l0 10.84375zm9.950714 -4.453125q0 0.359375 -0.1875 0.515625q-0.171875 0.140625 -0.390625 0.140625l-5.375 0q0 0.6875 0.125 1.234375q0.140625 0.546875 0.453125 0.9375q0.328125 0.390625 0.828125 0.609375q0.515625 0.203125 1.25 0.203125q0.59375 0 1.046875 -0.09375q0.453125 -0.09375 0.78125 -0.203125q0.34375 -0.125 0.546875 -0.21875q0.21875 -0.109375 0.328125 -0.109375q0.0625 0 0.109375 0.03125q0.0625 0.03125 0.078125 0.109375q0.03125 0.0625 0.046875 0.171875q0.015625 0.109375 0.015625 0.28125q0 0.109375 -0.015625 0.203125q0 0.078125 -0.015625 0.15625q-0.015625 0.0625 -0.046875 0.125q-0.03125 0.046875 -0.09375 0.09375q-0.046875 0.046875 -0.296875 0.171875q-0.234375 0.109375 -0.625 0.21875q-0.390625 0.109375 -0.90625 0.1875q-0.515625 0.09375 -1.09375 0.09375q-1.015625 0 -1.78125 -0.28125q-0.765625 -0.28125 -1.28125 -0.828125q-0.515625 -0.5625 -0.78125 -1.390625q-0.265625 -0.84375 -0.265625 -1.96875q0 -1.046875 0.265625 -1.890625q0.28125 -0.84375 0.796875 -1.421875q0.515625 -0.59375 1.234375 -0.90625q0.734375 -0.328125 1.640625 -0.328125q0.96875 0 1.640625 0.3125q0.6875 0.3125 1.125 0.84375q0.4375 0.515625 0.640625 1.234375q0.203125 0.703125 0.203125 1.5l0 0.265625zm-1.515625 -0.4375q0.03125 -1.1875 -0.53125 -1.859375q-0.546875 -0.671875 -1.625 -0.671875q-0.5625 0 -0.984375 0.21875q-0.40625 0.203125 -0.6875 0.546875q-0.28125 0.34375 -0.4375 0.8125q-0.15625 0.453125 -0.171875 0.953125l4.4375 0zm8.954468 2.671875q0 0.625 -0.234375 1.125q-0.234375 0.484375 -0.671875 0.828125q-0.421875 0.328125 -1.015625 0.5q-0.59375 0.171875 -1.296875 0.171875q-0.4375 0 -0.84375 -0.078125q-0.390625 -0.0625 -0.703125 -0.15625q-0.3125 -0.109375 -0.53125 -0.21875q-0.21875 -0.125 -0.328125 -0.203125q-0.09375 -0.09375 -0.140625 -0.25q-0.046875 -0.171875 -0.046875 -0.453125q0 -0.171875 0.015625 -0.296875q0.03125 -0.125 0.046875 -0.1875q0.03125 -0.078125 0.078125 -0.109375q0.046875 -0.03125 0.125 -0.03125q0.09375 0 0.28125 0.125q0.203125 0.125 0.484375 0.265625q0.296875 0.140625 0.6875 0.265625q0.390625 0.125 0.90625 0.125q0.375 0 0.6875 -0.078125q0.3125 -0.078125 0.53125 -0.234375q0.234375 -0.171875 0.359375 -0.40625q0.125 -0.25 0.125 -0.59375q0 -0.34375 -0.1875 -0.578125q-0.171875 -0.234375 -0.46875 -0.421875q-0.28125 -0.1875 -0.65625 -0.328125q-0.359375 -0.140625 -0.75 -0.296875q-0.390625 -0.15625 -0.765625 -0.34375q-0.359375 -0.203125 -0.65625 -0.484375q-0.28125 -0.28125 -0.46875 -0.671875q-0.171875 -0.390625 -0.171875 -0.9375q0 -0.484375 0.1875 -0.921875q0.1875 -0.4375 0.5625 -0.765625q0.375 -0.34375 0.921875 -0.546875q0.5625 -0.203125 1.3125 -0.203125q0.328125 0 0.65625 0.0625q0.328125 0.046875 0.59375 0.140625q0.265625 0.078125 0.453125 0.171875q0.1875 0.09375 0.28125 0.171875q0.09375 0.078125 0.125 0.140625q0.03125 0.046875 0.046875 0.109375q0.015625 0.0625 0.03125 0.171875q0.015625 0.09375 0.015625 0.234375q0 0.15625 -0.015625 0.28125q-0.015625 0.109375 -0.046875 0.1875q-0.03125 0.0625 -0.078125 0.09375q-0.046875 0.03125 -0.09375 0.03125q-0.09375 0 -0.25 -0.09375q-0.140625 -0.09375 -0.390625 -0.203125q-0.25 -0.125 -0.578125 -0.21875q-0.328125 -0.109375 -0.765625 -0.109375q-0.375 0 -0.671875 0.09375q-0.296875 0.078125 -0.484375 0.25q-0.1875 0.15625 -0.28125 0.375q-0.09375 0.21875 -0.09375 0.46875q0 0.359375 0.171875 0.609375q0.1875 0.234375 0.484375 0.421875q0.296875 0.171875 0.671875 0.328125q0.375 0.140625 0.75 0.296875q0.390625 0.140625 0.765625 0.34375q0.390625 0.1875 0.671875 0.46875q0.296875 0.265625 0.46875 0.65625q0.1875 0.375 0.1875 0.90625zm7.296692 0q0 0.625 -0.234375 1.125q-0.234375 0.484375 -0.671875 0.828125q-0.421875 0.328125 -1.015625 0.5q-0.59375 0.171875 -1.296875 0.171875q-0.4375 0 -0.84375 -0.078125q-0.390625 -0.0625 -0.703125 -0.15625q-0.3125 -0.109375 -0.53125 -0.21875q-0.21875 -0.125 -0.328125 -0.203125q-0.09375 -0.09375 -0.140625 -0.25q-0.046875 -0.171875 -0.046875 -0.453125q0 -0.171875 0.015625 -0.296875q0.03125 -0.125 0.046875 -0.1875q0.03125 -0.078125 0.078125 -0.109375q0.046875 -0.03125 0.125 -0.03125q0.09375 0 0.28125 0.125q0.203125 0.125 0.484375 0.265625q0.296875 0.140625 0.6875 0.265625q0.390625 0.125 0.90625 0.125q0.375 0 0.6875 -0.078125q0.3125 -0.078125 0.53125 -0.234375q0.234375 -0.171875 0.359375 -0.40625q0.125 -0.25 0.125 -0.59375q0 -0.34375 -0.1875 -0.578125q-0.171875 -0.234375 -0.46875 -0.421875q-0.28125 -0.1875 -0.65625 -0.328125q-0.359375 -0.140625 -0.75 -0.296875q-0.390625 -0.15625 -0.765625 -0.34375q-0.359375 -0.203125 -0.65625 -0.484375q-0.28125 -0.28125 -0.46875 -0.671875q-0.171875 -0.390625 -0.171875 -0.9375q0 -0.484375 0.1875 -0.921875q0.1875 -0.4375 0.5625 -0.765625q0.375 -0.34375 0.921875 -0.546875q0.5625 -0.203125 1.3125 -0.203125q0.328125 0 0.65625 0.0625q0.328125 0.046875 0.59375 0.140625q0.265625 0.078125 0.453125 0.171875q0.1875 0.09375 0.28125 0.171875q0.09375 0.078125 0.125 0.140625q0.03125 0.046875 0.046875 0.109375q0.015625 0.0625 0.03125 0.171875q0.015625 0.09375 0.015625 0.234375q0 0.15625 -0.015625 0.28125q-0.015625 0.109375 -0.046875 0.1875q-0.03125 0.0625 -0.078125 0.09375q-0.046875 0.03125 -0.09375 0.03125q-0.09375 0 -0.25 -0.09375q-0.140625 -0.09375 -0.390625 -0.203125q-0.25 -0.125 -0.578125 -0.21875q-0.328125 -0.109375 -0.765625 -0.109375q-0.375 0 -0.671875 0.09375q-0.296875 0.078125 -0.484375 0.25q-0.1875 0.15625 -0.28125 0.375q-0.09375 0.21875 -0.09375 0.46875q0 0.359375 0.171875 0.609375q0.1875 0.234375 0.484375 0.421875q0.296875 0.171875 0.671875 0.328125q0.375 0.140625 0.75 0.296875q0.390625 0.140625 0.765625 0.34375q0.390625 0.1875 0.671875 0.46875q0.296875 0.265625 0.46875 0.65625q0.1875 0.375 0.1875 0.90625zm8.312347 2.234375q0 0.109375 -0.078125 0.171875q-0.0625 0.046875 -0.1875 0.0625q-0.125 0.03125 -0.375 0.03125q-0.234375 0 -0.375 -0.03125q-0.140625 -0.015625 -0.203125 -0.0625q-0.0625 -0.0625 -0.0625 -0.171875l0 -0.8125q-0.546875 0.5625 -1.203125 0.890625q-0.65625 0.3125 -1.390625 0.3125q-0.65625 0 -1.1875 -0.171875q-0.515625 -0.15625 -0.890625 -0.46875q-0.359375 -0.328125 -0.5625 -0.796875q-0.203125 -0.46875 -0.203125 -1.0625q0 -0.6875 0.28125 -1.1875q0.28125 -0.515625 0.796875 -0.84375q0.53125 -0.34375 1.296875 -0.515625q0.765625 -0.171875 1.734375 -0.171875l1.125 0l0 -0.640625q0 -0.46875 -0.109375 -0.828125q-0.09375 -0.375 -0.328125 -0.609375q-0.21875 -0.25 -0.578125 -0.359375q-0.34375 -0.125 -0.859375 -0.125q-0.5625 0 -1.0 0.140625q-0.4375 0.125 -0.78125 0.28125q-0.328125 0.15625 -0.546875 0.296875q-0.21875 0.125 -0.328125 0.125q-0.078125 0 -0.140625 -0.03125q-0.046875 -0.046875 -0.09375 -0.109375q-0.03125 -0.078125 -0.0625 -0.1875q-0.015625 -0.125 -0.015625 -0.25q0 -0.234375 0.03125 -0.359375q0.03125 -0.140625 0.15625 -0.25q0.125 -0.125 0.421875 -0.28125q0.3125 -0.171875 0.703125 -0.296875q0.390625 -0.125 0.84375 -0.21875q0.46875 -0.09375 0.953125 -0.09375q0.875 0 1.484375 0.203125q0.625 0.203125 1.0 0.59375q0.390625 0.390625 0.5625 0.96875q0.171875 0.5625 0.171875 1.328125l0 5.53125zm-1.484375 -3.75l-1.28125 0q-0.625 0 -1.078125 0.109375q-0.453125 0.109375 -0.765625 0.3125q-0.296875 0.203125 -0.4375 0.5q-0.140625 0.28125 -0.140625 0.65625q0 0.625 0.40625 1.015625q0.40625 0.375 1.140625 0.375q0.59375 0 1.09375 -0.296875q0.5 -0.3125 1.0625 -0.921875l0 -1.75zm11.108276 -4.078125q0 0.3125 -0.09375 0.453125q-0.078125 0.140625 -0.21875 0.140625l-1.171875 0q0.3125 0.328125 0.4375 0.734375q0.125 0.390625 0.125 0.8125q0 0.71875 -0.234375 1.265625q-0.21875 0.546875 -0.640625 0.921875q-0.421875 0.375 -1.015625 0.578125q-0.578125 0.203125 -1.28125 0.203125q-0.5 0 -0.953125 -0.125q-0.453125 -0.140625 -0.703125 -0.34375q-0.15625 0.15625 -0.265625 0.375q-0.109375 0.203125 -0.109375 0.484375q0 0.3125 0.296875 0.53125q0.296875 0.203125 0.796875 0.21875l2.140625 0.09375q0.609375 0.015625 1.109375 0.171875q0.515625 0.140625 0.890625 0.421875q0.375 0.28125 0.578125 0.6875q0.21875 0.40625 0.21875 0.9375q0 0.5625 -0.25 1.078125q-0.234375 0.515625 -0.71875 0.890625q-0.484375 0.390625 -1.25 0.609375q-0.75 0.234375 -1.78125 0.234375q-0.984375 0 -1.6875 -0.171875q-0.6875 -0.171875 -1.140625 -0.46875q-0.4375 -0.28125 -0.640625 -0.6875q-0.203125 -0.40625 -0.203125 -0.875q0 -0.3125 0.0625 -0.59375q0.078125 -0.28125 0.21875 -0.53125q0.15625 -0.25 0.375 -0.484375q0.234375 -0.234375 0.53125 -0.46875q-0.453125 -0.21875 -0.671875 -0.5625q-0.203125 -0.359375 -0.203125 -0.75q0 -0.5625 0.21875 -1.0q0.234375 -0.4375 0.5625 -0.78125q-0.28125 -0.328125 -0.453125 -0.75q-0.15625 -0.4375 -0.15625 -1.03125q0 -0.703125 0.234375 -1.25q0.25 -0.5625 0.65625 -0.9375q0.421875 -0.390625 1.015625 -0.59375q0.59375 -0.203125 1.28125 -0.203125q0.375 0 0.6875 0.046875q0.328125 0.03125 0.609375 0.109375l2.484375 0q0.15625 0 0.234375 0.15625q0.078125 0.140625 0.078125 0.453125zm-2.359375 2.15625q0 -0.84375 -0.46875 -1.3125q-0.453125 -0.46875 -1.296875 -0.46875q-0.4375 0 -0.765625 0.15625q-0.3125 0.140625 -0.53125 0.390625q-0.21875 0.25 -0.328125 0.59375q-0.09375 0.328125 -0.09375 0.6875q0 0.8125 0.453125 1.28125q0.46875 0.46875 1.296875 0.46875q0.4375 0 0.765625 -0.140625q0.328125 -0.140625 0.546875 -0.390625q0.21875 -0.25 0.3125 -0.578125q0.109375 -0.328125 0.109375 -0.6875zm0.765625 6.484375q0 -0.515625 -0.4375 -0.796875q-0.4375 -0.296875 -1.171875 -0.3125l-2.125 -0.078125q-0.296875 0.234375 -0.484375 0.4375q-0.171875 0.203125 -0.28125 0.390625q-0.109375 0.1875 -0.15625 0.359375q-0.046875 0.1875 -0.046875 0.375q0 0.59375 0.59375 0.890625q0.609375 0.3125 1.6875 0.3125q0.6875 0 1.140625 -0.140625q0.46875 -0.125 0.75 -0.34375q0.28125 -0.21875 0.40625 -0.5q0.125 -0.28125 0.125 -0.59375zm10.51593 -5.28125q0 0.359375 -0.1875 0.515625q-0.171875 0.140625 -0.390625 0.140625l-5.375 0q0 0.6875 0.125 1.234375q0.140625 0.546875 0.453125 0.9375q0.328125 0.390625 0.828125 0.609375q0.515625 0.203125 1.25 0.203125q0.59375 0 1.046875 -0.09375q0.453125 -0.09375 0.78125 -0.203125q0.34375 -0.125 0.546875 -0.21875q0.21875 -0.109375 0.328125 -0.109375q0.0625 0 0.109375 0.03125q0.0625 0.03125 0.078125 0.109375q0.03125 0.0625 0.046875 0.171875q0.015625 0.109375 0.015625 0.28125q0 0.109375 -0.015625 0.203125q0 0.078125 -0.015625 0.15625q-0.015625 0.0625 -0.046875 0.125q-0.03125 0.046875 -0.09375 0.09375q-0.046875 0.046875 -0.296875 0.171875q-0.234375 0.109375 -0.625 0.21875q-0.390625 0.109375 -0.90625 0.1875q-0.515625 0.09375 -1.09375 0.09375q-1.015625 0 -1.78125 -0.28125q-0.765625 -0.28125 -1.28125 -0.828125q-0.515625 -0.5625 -0.78125 -1.390625q-0.265625 -0.84375 -0.265625 -1.96875q0 -1.046875 0.265625 -1.890625q0.28125 -0.84375 0.796875 -1.421875q0.515625 -0.59375 1.234375 -0.90625q0.734375 -0.328125 1.640625 -0.328125q0.96875 0 1.640625 0.3125q0.6875 0.3125 1.125 0.84375q0.4375 0.515625 0.640625 1.234375q0.203125 0.703125 0.203125 1.5l0 0.265625zm-1.515625 -0.4375q0.03125 -1.1875 -0.53125 -1.859375q-0.546875 -0.671875 -1.625 -0.671875q-0.5625 0 -0.984375 0.21875q-0.40625 0.203125 -0.6875 0.546875q-0.28125 0.34375 -0.4375 0.8125q-0.15625 0.453125 -0.171875 0.953125l4.4375 0zm12.470093 4.890625q0 0.078125 -0.046875 0.140625q-0.03125 0.046875 -0.125 0.078125q-0.09375 0.03125 -0.25 0.046875q-0.140625 0.015625 -0.359375 0.015625q-0.234375 0 -0.390625 -0.015625q-0.140625 -0.015625 -0.234375 -0.046875q-0.078125 -0.03125 -0.125 -0.078125q-0.03125 -0.0625 -0.03125 -0.140625l0 -5.234375l-5.359375 0l0 5.234375q0 0.078125 -0.046875 0.140625q-0.03125 0.046875 -0.125 0.078125q-0.09375 0.03125 -0.25 0.046875q-0.140625 0.015625 -0.375 0.015625q-0.21875 0 -0.375 -0.015625q-0.140625 -0.015625 -0.234375 -0.046875q-0.09375 -0.03125 -0.140625 -0.078125q-0.03125 -0.0625 -0.03125 -0.140625l0 -11.3125q0 -0.078125 0.03125 -0.125q0.046875 -0.0625 0.140625 -0.09375q0.09375 -0.03125 0.234375 -0.046875q0.15625 -0.03125 0.375 -0.03125q0.234375 0 0.375 0.03125q0.15625 0.015625 0.25 0.046875q0.09375 0.03125 0.125 0.09375q0.046875 0.046875 0.046875 0.125l0 4.71875l5.359375 0l0 -4.71875q0 -0.078125 0.03125 -0.125q0.046875 -0.0625 0.125 -0.09375q0.09375 -0.03125 0.234375 -0.046875q0.15625 -0.03125 0.390625 -0.03125q0.21875 0 0.359375 0.03125q0.15625 0.015625 0.25 0.046875q0.09375 0.03125 0.125 0.09375q0.046875 0.046875 0.046875 0.125l0 11.3125zm9.951843 -4.453125q0 0.359375 -0.1875 0.515625q-0.171875 0.140625 -0.390625 0.140625l-5.375 0q0 0.6875 0.125 1.234375q0.140625 0.546875 0.453125 0.9375q0.328125 0.390625 0.828125 0.609375q0.515625 0.203125 1.25 0.203125q0.59375 0 1.046875 -0.09375q0.453125 -0.09375 0.78125 -0.203125q0.34375 -0.125 0.546875 -0.21875q0.21875 -0.109375 0.328125 -0.109375q0.0625 0 0.109375 0.03125q0.0625 0.03125 0.078125 0.109375q0.03125 0.0625 0.046875 0.171875q0.015625 0.109375 0.015625 0.28125q0 0.109375 -0.015625 0.203125q0 0.078125 -0.015625 0.15625q-0.015625 0.0625 -0.046875 0.125q-0.03125 0.046875 -0.09375 0.09375q-0.046875 0.046875 -0.296875 0.171875q-0.234375 0.109375 -0.625 0.21875q-0.390625 0.109375 -0.90625 0.1875q-0.515625 0.09375 -1.09375 0.09375q-1.015625 0 -1.78125 -0.28125q-0.765625 -0.28125 -1.28125 -0.828125q-0.515625 -0.5625 -0.78125 -1.390625q-0.265625 -0.84375 -0.265625 -1.96875q0 -1.046875 0.265625 -1.890625q0.28125 -0.84375 0.796875 -1.421875q0.515625 -0.59375 1.234375 -0.90625q0.734375 -0.328125 1.640625 -0.328125q0.96875 0 1.640625 0.3125q0.6875 0.3125 1.125 0.84375q0.4375 0.515625 0.640625 1.234375q0.203125 0.703125 0.203125 1.5l0 0.265625zm-1.515625 -0.4375q0.03125 -1.1875 -0.53125 -1.859375q-0.546875 -0.671875 -1.625 -0.671875q-0.5625 0 -0.984375 0.21875q-0.40625 0.203125 -0.6875 0.546875q-0.28125 0.34375 -0.4375 0.8125q-0.15625 0.453125 -0.171875 0.953125l4.4375 0zm9.970062 4.90625q0 0.109375 -0.078125 0.171875q-0.0625 0.046875 -0.1875 0.0625q-0.125 0.03125 -0.375 0.03125q-0.234375 0 -0.375 -0.03125q-0.140625 -0.015625 -0.203125 -0.0625q-0.0625 -0.0625 -0.0625 -0.171875l0 -0.8125q-0.546875 0.5625 -1.203125 0.890625q-0.65625 0.3125 -1.390625 0.3125q-0.65625 0 -1.1875 -0.171875q-0.515625 -0.15625 -0.890625 -0.46875q-0.359375 -0.328125 -0.5625 -0.796875q-0.203125 -0.46875 -0.203125 -1.0625q0 -0.6875 0.28125 -1.1875q0.28125 -0.515625 0.796875 -0.84375q0.53125 -0.34375 1.296875 -0.515625q0.765625 -0.171875 1.734375 -0.171875l1.125 0l0 -0.640625q0 -0.46875 -0.109375 -0.828125q-0.09375 -0.375 -0.328125 -0.609375q-0.21875 -0.25 -0.578125 -0.359375q-0.34375 -0.125 -0.859375 -0.125q-0.5625 0 -1.0 0.140625q-0.4375 0.125 -0.78125 0.28125q-0.328125 0.15625 -0.546875 0.296875q-0.21875 0.125 -0.328125 0.125q-0.078125 0 -0.140625 -0.03125q-0.046875 -0.046875 -0.09375 -0.109375q-0.03125 -0.078125 -0.0625 -0.1875q-0.015625 -0.125 -0.015625 -0.25q0 -0.234375 0.03125 -0.359375q0.03125 -0.140625 0.15625 -0.25q0.125 -0.125 0.421875 -0.28125q0.3125 -0.171875 0.703125 -0.296875q0.390625 -0.125 0.84375 -0.21875q0.46875 -0.09375 0.953125 -0.09375q0.875 0 1.484375 0.203125q0.625 0.203125 1.0 0.59375q0.390625 0.390625 0.5625 0.96875q0.171875 0.5625 0.171875 1.328125l0 5.53125zm-1.484375 -3.75l-1.28125 0q-0.625 0 -1.078125 0.109375q-0.453125 0.109375 -0.765625 0.3125q-0.296875 0.203125 -0.4375 0.5q-0.140625 0.28125 -0.140625 0.65625q0 0.625 0.40625 1.015625q0.40625 0.375 1.140625 0.375q0.59375 0 1.09375 -0.296875q0.5 -0.3125 1.0625 -0.921875l0 -1.75zm11.280182 3.734375q0 0.078125 -0.03125 0.140625q-0.03125 0.046875 -0.109375 0.078125q-0.078125 0.03125 -0.21875 0.046875q-0.125 0.015625 -0.296875 0.015625q-0.203125 0 -0.328125 -0.015625q-0.125 -0.015625 -0.203125 -0.046875q-0.078125 -0.03125 -0.125 -0.078125q-0.03125 -0.0625 -0.03125 -0.140625l0 -1.078125q-0.640625 0.703125 -1.34375 1.09375q-0.703125 0.390625 -1.53125 0.390625q-0.890625 0 -1.53125 -0.34375q-0.640625 -0.359375 -1.046875 -0.953125q-0.390625 -0.59375 -0.578125 -1.390625q-0.171875 -0.8125 -0.171875 -1.71875q0 -1.046875 0.21875 -1.890625q0.234375 -0.859375 0.671875 -1.453125q0.453125 -0.609375 1.109375 -0.9375q0.671875 -0.328125 1.53125 -0.328125q0.71875 0 1.3125 0.328125q0.609375 0.3125 1.1875 0.921875l0 -4.765625q0 -0.0625 0.03125 -0.125q0.03125 -0.0625 0.125 -0.09375q0.09375 -0.03125 0.234375 -0.046875q0.140625 -0.03125 0.359375 -0.03125q0.21875 0 0.359375 0.03125q0.15625 0.015625 0.234375 0.046875q0.078125 0.03125 0.125 0.09375q0.046875 0.0625 0.046875 0.125l0 12.125zm-1.515625 -5.765625q-0.609375 -0.75 -1.1875 -1.140625q-0.5625 -0.40625 -1.1875 -0.40625q-0.5625 0 -0.96875 0.28125q-0.40625 0.265625 -0.65625 0.71875q-0.25 0.4375 -0.359375 1.015625q-0.109375 0.5625 -0.109375 1.140625q0 0.625 0.09375 1.21875q0.09375 0.578125 0.328125 1.046875q0.234375 0.453125 0.625 0.734375q0.390625 0.28125 0.984375 0.28125q0.296875 0 0.578125 -0.078125q0.28125 -0.09375 0.5625 -0.28125q0.296875 -0.1875 0.609375 -0.484375q0.328125 -0.3125 0.6875 -0.765625l0 -3.28125zm11.286194 1.3125q0 0.359375 -0.1875 0.515625q-0.171875 0.140625 -0.390625 0.140625l-5.375 0q0 0.6875 0.125 1.234375q0.140625 0.546875 0.453125 0.9375q0.328125 0.390625 0.828125 0.609375q0.515625 0.203125 1.25 0.203125q0.59375 0 1.046875 -0.09375q0.453125 -0.09375 0.78125 -0.203125q0.34375 -0.125 0.546875 -0.21875q0.21875 -0.109375 0.328125 -0.109375q0.0625 0 0.109375 0.03125q0.0625 0.03125 0.078125 0.109375q0.03125 0.0625 0.046875 0.171875q0.015625 0.109375 0.015625 0.28125q0 0.109375 -0.015625 0.203125q0 0.078125 -0.015625 0.15625q-0.015625 0.0625 -0.046875 0.125q-0.03125 0.046875 -0.09375 0.09375q-0.046875 0.046875 -0.296875 0.171875q-0.234375 0.109375 -0.625 0.21875q-0.390625 0.109375 -0.90625 0.1875q-0.515625 0.09375 -1.09375 0.09375q-1.015625 0 -1.78125 -0.28125q-0.765625 -0.28125 -1.28125 -0.828125q-0.515625 -0.5625 -0.78125 -1.390625q-0.265625 -0.84375 -0.265625 -1.96875q0 -1.046875 0.265625 -1.890625q0.28125 -0.84375 0.796875 -1.421875q0.515625 -0.59375 1.234375 -0.90625q0.734375 -0.328125 1.640625 -0.328125q0.96875 0 1.640625 0.3125q0.6875 0.3125 1.125 0.84375q0.4375 0.515625 0.640625 1.234375q0.203125 0.703125 0.203125 1.5l0 0.265625zm-1.515625 -0.4375q0.03125 -1.1875 -0.53125 -1.859375q-0.546875 -0.671875 -1.625 -0.671875q-0.5625 0 -0.984375 0.21875q-0.40625 0.203125 -0.6875 0.546875q-0.28125 0.34375 -0.4375 0.8125q-0.15625 0.453125 -0.171875 0.953125l4.4375 0zm8.595062 -2.765625q0 0.203125 -0.015625 0.34375q0 0.125 -0.03125 0.203125q-0.03125 0.078125 -0.078125 0.125q-0.03125 0.046875 -0.109375 0.046875q-0.0625 0 -0.171875 -0.046875q-0.109375 -0.046875 -0.25 -0.078125q-0.125 -0.046875 -0.296875 -0.078125q-0.15625 -0.046875 -0.34375 -0.046875q-0.21875 0 -0.4375 0.09375q-0.21875 0.09375 -0.46875 0.3125q-0.234375 0.203125 -0.5 0.546875q-0.265625 0.34375 -0.59375 0.84375l0 5.390625q0 0.078125 -0.03125 0.140625q-0.03125 0.046875 -0.125 0.078125q-0.078125 0.03125 -0.21875 0.046875q-0.140625 0.015625 -0.375 0.015625q-0.21875 0 -0.375 -0.015625q-0.140625 -0.015625 -0.234375 -0.046875q-0.078125 -0.03125 -0.109375 -0.078125q-0.03125 -0.0625 -0.03125 -0.140625l0 -8.1875q0 -0.078125 0.03125 -0.125q0.03125 -0.046875 0.109375 -0.09375q0.078125 -0.046875 0.203125 -0.046875q0.140625 -0.015625 0.34375 -0.015625q0.203125 0 0.328125 0.015625q0.140625 0 0.203125 0.046875q0.078125 0.046875 0.109375 0.09375q0.03125 0.046875 0.03125 0.125l0 1.1875q0.34375 -0.484375 0.640625 -0.796875q0.296875 -0.3125 0.546875 -0.484375q0.265625 -0.1875 0.53125 -0.25q0.265625 -0.078125 0.515625 -0.078125q0.125 0 0.265625 0.015625q0.15625 0.015625 0.3125 0.0625q0.171875 0.03125 0.296875 0.078125q0.140625 0.046875 0.1875 0.09375q0.0625 0.046875 0.078125 0.09375q0.03125 0.03125 0.03125 0.09375q0.015625 0.0625 0.015625 0.1875q0.015625 0.125 0.015625 0.328125z" fill-rule="nonzero"/><path fill="#000000" fill-opacity="0.0" d="m454.73032 312.0l0 -114.23622" fill-rule="evenodd"/><path stroke="#4472c4" stroke-width="4.0" stroke-miterlimit="800.0" stroke-linecap="butt" d="m454.73032 312.0l0 -90.23622" fill-rule="evenodd"/><path fill="#4472c4" stroke="#4472c4" stroke-width="4.0" stroke-linecap="butt" d="m461.33725 221.76378l-6.6069336 -18.15239l-6.6069336 18.15239z" fill-rule="evenodd"/><path fill="#ffffff" d="m418.85977 242.92441l71.74017 0l0 29.078735l-71.74017 0z" fill-rule="evenodd"/><path stroke="#ffffff" stroke-width="1.0" stroke-linejoin="round" stroke-linecap="butt" d="m418.85977 242.92441l71.74017 0l0 29.078735l-71.74017 0z" fill-rule="evenodd"/><path fill="#000000" d="m440.36096 252.04753q0 0.171875 -0.03125 0.28125q-0.015625 0.09375 -0.046875 0.171875q-0.015625 0.0625 -0.046875 0.09375q-0.03125 0.015625 -0.09375 0.015625q-0.0625 0 -0.15625 -0.046875q-0.09375 -0.046875 -0.234375 -0.09375q-0.140625 -0.046875 -0.328125 -0.078125q-0.1875 -0.046875 -0.421875 -0.046875q-0.34375 0 -0.578125 0.109375q-0.234375 0.109375 -0.390625 0.34375q-0.140625 0.21875 -0.203125 0.59375q-0.0625 0.375 -0.0625 0.890625l0 0.90625l1.828125 0q0.078125 0 0.125 0.03125q0.046875 0.03125 0.09375 0.109375q0.046875 0.078125 0.0625 0.203125q0.015625 0.109375 0.015625 0.28125q0 0.32814026 -0.078125 0.46876526q-0.078125 0.140625 -0.21875 0.140625l-1.828125 0l0 7.1875q0 0.078125 -0.046875 0.140625q-0.03125 0.046875 -0.125 0.078125q-0.078125 0.03125 -0.21875 0.046875q-0.140625 0.015625 -0.359375 0.015625q-0.21875 0 -0.375 -0.015625q-0.140625 -0.015625 -0.234375 -0.046875q-0.078125 -0.03125 -0.125 -0.078125q-0.03125 -0.0625 -0.03125 -0.140625l0 -7.1875l-1.15625 0q-0.140625 0 -0.21875 -0.140625q-0.0625 -0.140625 -0.0625 -0.46876526q0 -0.171875 0.015625 -0.28125q0.015625 -0.125 0.046875 -0.203125q0.046875 -0.078125 0.09375 -0.109375q0.0625 -0.03125 0.125 -0.03125l1.15625 0l0 -0.859375q0 -0.84375 0.15625 -1.453125q0.171875 -0.625 0.5 -1.015625q0.328125 -0.390625 0.8125 -0.578125q0.5 -0.1875 1.171875 -0.1875q0.328125 0 0.625 0.0625q0.296875 0.046875 0.453125 0.125q0.171875 0.0625 0.21875 0.125q0.0625 0.046875 0.09375 0.140625q0.046875 0.078125 0.0625 0.203125q0.015625 0.125 0.015625 0.296875zm8.81842 7.3750153q0 1.0 -0.265625 1.84375q-0.265625 0.84375 -0.796875 1.453125q-0.515625 0.609375 -1.3125 0.953125q-0.78125 0.34375 -1.8125 0.34375q-1.015625 0 -1.765625 -0.296875q-0.75 -0.296875 -1.25 -0.875q-0.5 -0.578125 -0.75 -1.390625q-0.25 -0.828125 -0.25 -1.859375q0 -1.0 0.265625 -1.84375q0.265625 -0.84375 0.78125 -1.453125q0.53125 -0.60939026 1.3125 -0.95314026q0.78125 -0.34375 1.828125 -0.34375q1.015625 0 1.765625 0.3125q0.75 0.296875 1.25 0.87501526q0.5 0.5625 0.75 1.390625q0.25 0.8125 0.25 1.84375zm-1.578125 0.109375q0 -0.671875 -0.125 -1.265625q-0.125 -0.59375 -0.40625 -1.03125q-0.28125 -0.453125 -0.765625 -0.703125q-0.484375 -0.265625 -1.203125 -0.265625q-0.671875 0 -1.15625 0.234375q-0.46875 0.234375 -0.78125 0.671875q-0.296875 0.4375 -0.453125 1.03125q-0.15625 0.578125 -0.15625 1.28125q0 0.671875 0.125 1.265625q0.125 0.59375 0.40625 1.046875q0.296875 0.4375 0.78125 0.703125q0.484375 0.25 1.203125 0.25q0.65625 0 1.125 -0.234375q0.484375 -0.234375 0.796875 -0.65625q0.3125 -0.4375 0.453125 -1.03125q0.15625 -0.59375 0.15625 -1.296875zm9.682007 2.84375q0 0.140625 -0.015625 0.265625q0 0.109375 -0.03125 0.1875q-0.015625 0.078125 -0.046875 0.140625q-0.03125 0.0625 -0.140625 0.171875q-0.109375 0.109375 -0.390625 0.28125q-0.265625 0.171875 -0.609375 0.3125q-0.34375 0.125 -0.75 0.203125q-0.390625 0.078125 -0.828125 0.078125q-0.875 0 -1.5625 -0.28125q-0.6875 -0.296875 -1.15625 -0.859375q-0.453125 -0.5625 -0.703125 -1.375q-0.234375 -0.8125 -0.234375 -1.890625q0 -1.203125 0.296875 -2.0625q0.296875 -0.875 0.8125 -1.4375q0.515625 -0.56251526 1.203125 -0.82814026q0.703125 -0.265625 1.515625 -0.265625q0.390625 0 0.765625 0.078125q0.375 0.0625 0.671875 0.1875q0.3125 0.125 0.546875 0.28125q0.25 0.140625 0.359375 0.25q0.109375 0.109375 0.140625 0.18751526q0.046875 0.0625 0.078125 0.15625q0.03125 0.078125 0.03125 0.1875q0.015625 0.109375 0.015625 0.265625q0 0.359375 -0.078125 0.5q-0.078125 0.140625 -0.203125 0.140625q-0.140625 0 -0.3125 -0.140625q-0.171875 -0.15625 -0.453125 -0.34375q-0.265625 -0.1875 -0.65625 -0.328125q-0.390625 -0.15625 -0.921875 -0.15625q-1.078125 0 -1.65625 0.84375q-0.578125 0.828125 -0.578125 2.40625q0 0.796875 0.140625 1.390625q0.15625 0.59375 0.4375 1.0q0.296875 0.40625 0.71875 0.609375q0.4375 0.1875 0.984375 0.1875q0.515625 0 0.90625 -0.15625q0.390625 -0.171875 0.671875 -0.359375q0.296875 -0.203125 0.484375 -0.359375q0.203125 -0.171875 0.3125 -0.171875q0.0625 0 0.109375 0.046875q0.046875 0.03125 0.078125 0.125q0.03125 0.078125 0.03125 0.21875q0.015625 0.125 0.015625 0.3125zm9.029449 1.234375q0 0.078125 -0.03125 0.140625q-0.03125 0.046875 -0.125 0.078125q-0.078125 0.03125 -0.21875 0.046875q-0.125 0.015625 -0.3125 0.015625q-0.203125 0 -0.34375 -0.015625q-0.125 -0.015625 -0.203125 -0.046875q-0.078125 -0.03125 -0.109375 -0.078125q-0.03125 -0.0625 -0.03125 -0.140625l0 -1.078125q-0.703125 0.78125 -1.390625 1.140625q-0.671875 0.34375 -1.375 0.34375q-0.8125 0 -1.375 -0.265625q-0.5625 -0.28125 -0.90625 -0.75q-0.34375 -0.46875 -0.5 -1.09375q-0.15625 -0.625 -0.15625 -1.515625l0 -4.9687653q0 -0.078125 0.03125 -0.125q0.03125 -0.046875 0.125 -0.09375q0.09375 -0.046875 0.234375 -0.046875q0.15625 -0.015625 0.375 -0.015625q0.21875 0 0.359375 0.015625q0.140625 0 0.21875 0.046875q0.09375 0.046875 0.125 0.09375q0.046875 0.046875 0.046875 0.125l0 4.7656403q0 0.71875 0.09375 1.15625q0.109375 0.4375 0.328125 0.75q0.21875 0.296875 0.546875 0.46875q0.328125 0.15625 0.765625 0.15625q0.5625 0 1.125 -0.390625q0.5625 -0.40625 1.1875 -1.1875l0 -5.7187653q0 -0.078125 0.03125 -0.125q0.03125 -0.046875 0.125 -0.09375q0.09375 -0.046875 0.234375 -0.046875q0.140625 -0.015625 0.359375 -0.015625q0.21875 0 0.359375 0.015625q0.15625 0 0.234375 0.046875q0.078125 0.046875 0.125 0.09375q0.046875 0.046875 0.046875 0.125l0 8.187515zm7.926819 -2.21875q0 0.625 -0.234375 1.125q-0.234375 0.484375 -0.671875 0.828125q-0.421875 0.328125 -1.015625 0.5q-0.59375 0.171875 -1.296875 0.171875q-0.4375 0 -0.84375 -0.078125q-0.390625 -0.0625 -0.703125 -0.15625q-0.3125 -0.109375 -0.53125 -0.21875q-0.21875 -0.125 -0.328125 -0.203125q-0.09375 -0.09375 -0.140625 -0.25q-0.046875 -0.171875 -0.046875 -0.453125q0 -0.171875 0.015625 -0.296875q0.03125 -0.125 0.046875 -0.1875q0.03125 -0.078125 0.078125 -0.109375q0.046875 -0.03125 0.125 -0.03125q0.09375 0 0.28125 0.125q0.203125 0.125 0.484375 0.265625q0.296875 0.140625 0.6875 0.265625q0.390625 0.125 0.90625 0.125q0.375 0 0.6875 -0.078125q0.3125 -0.078125 0.53125 -0.234375q0.234375 -0.171875 0.359375 -0.40625q0.125 -0.25 0.125 -0.59375q0 -0.34375 -0.1875 -0.578125q-0.171875 -0.234375 -0.46875 -0.421875q-0.28125 -0.1875 -0.65625 -0.328125q-0.359375 -0.140625 -0.75 -0.296875q-0.390625 -0.15625 -0.765625 -0.34375q-0.359375 -0.203125 -0.65625 -0.484375q-0.28125 -0.28125 -0.46875 -0.671875q-0.171875 -0.390625 -0.171875 -0.9375q0 -0.484375 0.1875 -0.921875q0.1875 -0.4375 0.5625 -0.76564026q0.375 -0.34375 0.921875 -0.546875q0.5625 -0.203125 1.3125 -0.203125q0.328125 0 0.65625 0.0625q0.328125 0.046875 0.59375 0.140625q0.265625 0.078125 0.453125 0.171875q0.1875 0.09375 0.28125 0.171875q0.09375 0.078125 0.125 0.140625q0.03125 0.046875 0.046875 0.109375q0.015625 0.0625 0.03125 0.171875q0.015625 0.09376526 0.015625 0.23439026q0 0.15625 -0.015625 0.28125q-0.015625 0.109375 -0.046875 0.1875q-0.03125 0.0625 -0.078125 0.09375q-0.046875 0.03125 -0.09375 0.03125q-0.09375 0 -0.25 -0.09375q-0.140625 -0.09375 -0.390625 -0.203125q-0.25 -0.125 -0.578125 -0.21875q-0.328125 -0.109375 -0.765625 -0.109375q-0.375 0 -0.671875 0.09375q-0.296875 0.078125 -0.484375 0.25q-0.1875 0.15625 -0.28125 0.375q-0.09375 0.21875 -0.09375 0.46875q0 0.359375 0.171875 0.609375q0.1875 0.234375 0.484375 0.421875q0.296875 0.171875 0.671875 0.328125q0.375 0.140625 0.75 0.296875q0.390625 0.140625 0.765625 0.34375q0.390625 0.1875 0.671875 0.46875q0.296875 0.265625 0.46875 0.65625q0.1875 0.375 0.1875 0.90625z" fill-rule="nonzero"/><path fill="#4472c4" d="m377.22592 137.76575l0 0c0 -6.627548 5.3726807 -12.0002365 12.000244 -12.0002365l131.00735 0c3.1826782 0 6.2349854 1.2643051 8.485474 3.5147934c2.2504883 2.250473 3.5147705 5.30278 3.5147705 8.485443l0 47.999527c0 6.627548 -5.3726807 12.000229 -12.000244 12.000229l-131.00735 0c-6.6275635 0 -12.000244 -5.3726807 -12.000244 -12.000229z" fill-rule="evenodd"/><path stroke="#000000" stroke-width="4.0" stroke-miterlimit="800.0" stroke-linecap="butt" d="m377.22592 137.76575l0 0c0 -6.627548 5.3726807 -12.0002365 12.000244 -12.0002365l131.00735 0c3.1826782 0 6.2349854 1.2643051 8.485474 3.5147934c2.2504883 2.250473 3.5147705 5.30278 3.5147705 8.485443l0 47.999527c0 6.627548 -5.3726807 12.000229 -12.000244 12.000229l-131.00735 0c-6.6275635 0 -12.000244 -5.3726807 -12.000244 -12.000229z" fill-rule="evenodd"/><path fill="#ffffff" d="m435.00125 153.32613q0 1.078125 -0.328125 1.921875q-0.3125 0.84375 -0.890625 1.4375q-0.578125 0.578125 -1.421875 0.875q-0.84375 0.296875 -1.90625 0.296875q-0.96875 0 -1.78125 -0.28125q-0.796875 -0.28125 -1.375 -0.828125q-0.5625 -0.5625 -0.875 -1.390625q-0.3125 -0.828125 -0.3125 -1.90625l0 -7.3125q0 -0.078125 0.03125 -0.125q0.046875 -0.0625 0.125 -0.09375q0.09375 -0.03125 0.234375 -0.046875q0.15625 -0.03125 0.390625 -0.03125q0.21875 0 0.375 0.03125q0.15625 0.015625 0.234375 0.046875q0.09375 0.03125 0.125 0.09375q0.046875 0.046875 0.046875 0.125l0 7.125q0 0.8125 0.1875 1.421875q0.203125 0.609375 0.578125 1.015625q0.390625 0.40625 0.921875 0.609375q0.53125 0.203125 1.203125 0.203125q0.671875 0 1.203125 -0.1875q0.546875 -0.203125 0.90625 -0.609375q0.375 -0.40625 0.5625 -0.984375q0.203125 -0.59375 0.203125 -1.390625l0 -7.203125q0 -0.078125 0.03125 -0.125q0.046875 -0.0625 0.125 -0.09375q0.09375 -0.03125 0.234375 -0.046875q0.15625 -0.03125 0.390625 -0.03125q0.21875 0 0.359375 0.03125q0.15625 0.015625 0.234375 0.046875q0.09375 0.03125 0.140625 0.09375q0.046875 0.046875 0.046875 0.125l0 7.1875zm9.423004 1.046875q0 0.828125 -0.3125 1.484375q-0.296875 0.640625 -0.84375 1.09375q-0.53125 0.453125 -1.265625 0.6875q-0.734375 0.21875 -1.578125 0.21875q-0.59375 0 -1.109375 -0.109375q-0.5 -0.09375 -0.890625 -0.234375q-0.390625 -0.140625 -0.671875 -0.296875q-0.265625 -0.15625 -0.375 -0.265625q-0.09375 -0.109375 -0.15625 -0.28125q-0.046875 -0.171875 -0.046875 -0.453125q0 -0.203125 0.015625 -0.328125q0.03125 -0.140625 0.0625 -0.21875q0.03125 -0.078125 0.078125 -0.109375q0.0625 -0.03125 0.140625 -0.03125q0.125 0 0.359375 0.15625q0.234375 0.15625 0.59375 0.34375q0.375 0.171875 0.875 0.328125q0.515625 0.15625 1.203125 0.15625q0.5 0 0.921875 -0.125q0.421875 -0.140625 0.734375 -0.390625q0.3125 -0.25 0.46875 -0.609375q0.171875 -0.375 0.171875 -0.84375q0 -0.5 -0.234375 -0.84375q-0.234375 -0.359375 -0.609375 -0.625q-0.359375 -0.265625 -0.84375 -0.484375q-0.484375 -0.234375 -0.984375 -0.46875q-0.5 -0.234375 -0.96875 -0.515625q-0.46875 -0.28125 -0.84375 -0.65625q-0.375 -0.390625 -0.609375 -0.90625q-0.234375 -0.515625 -0.234375 -1.234375q0 -0.734375 0.265625 -1.3125q0.265625 -0.578125 0.75 -0.96875q0.484375 -0.390625 1.140625 -0.59375q0.65625 -0.203125 1.421875 -0.203125q0.390625 0 0.78125 0.0625q0.40625 0.0625 0.75 0.1875q0.359375 0.109375 0.625 0.25q0.28125 0.140625 0.359375 0.234375q0.09375 0.078125 0.109375 0.125q0.03125 0.046875 0.046875 0.125q0.03125 0.078125 0.03125 0.1875q0.015625 0.109375 0.015625 0.28125q0 0.171875 -0.015625 0.296875q-0.015625 0.125 -0.046875 0.21875q-0.015625 0.078125 -0.078125 0.125q-0.046875 0.046875 -0.109375 0.046875q-0.09375 0 -0.3125 -0.125q-0.21875 -0.140625 -0.53125 -0.296875q-0.296875 -0.15625 -0.734375 -0.28125q-0.421875 -0.140625 -0.9375 -0.140625q-0.5 0 -0.859375 0.140625q-0.359375 0.125 -0.609375 0.34375q-0.234375 0.21875 -0.359375 0.515625q-0.109375 0.296875 -0.109375 0.640625q0 0.484375 0.21875 0.84375q0.234375 0.359375 0.609375 0.640625q0.390625 0.265625 0.859375 0.5q0.484375 0.21875 0.984375 0.453125q0.515625 0.234375 0.984375 0.515625q0.484375 0.265625 0.859375 0.65625q0.390625 0.375 0.609375 0.890625q0.234375 0.5 0.234375 1.203125zm14.336609 1.640625q0 0.15625 -0.015625 0.265625q0 0.109375 -0.03125 0.1875q-0.015625 0.078125 -0.0625 0.140625q-0.03125 0.0625 -0.125 0.15625q-0.078125 0.09375 -0.375 0.28125q-0.296875 0.1875 -0.734375 0.375q-0.421875 0.171875 -0.984375 0.28125q-0.5625 0.125 -1.21875 0.125q-1.15625 0 -2.078125 -0.375q-0.921875 -0.390625 -1.578125 -1.125q-0.65625 -0.75 -1.0 -1.84375q-0.34375 -1.109375 -0.34375 -2.53125q0 -1.46875 0.375 -2.609375q0.375 -1.15625 1.046875 -1.953125q0.6875 -0.796875 1.640625 -1.21875q0.953125 -0.421875 2.109375 -0.421875q0.515625 0 1.0 0.109375q0.484375 0.09375 0.890625 0.234375q0.40625 0.140625 0.71875 0.34375q0.328125 0.1875 0.453125 0.3125q0.125 0.109375 0.15625 0.1875q0.03125 0.0625 0.046875 0.15625q0.03125 0.078125 0.046875 0.203125q0.015625 0.109375 0.015625 0.265625q0 0.1875 -0.015625 0.3125q-0.015625 0.125 -0.0625 0.21875q-0.03125 0.078125 -0.078125 0.125q-0.046875 0.046875 -0.125 0.046875q-0.125 0 -0.359375 -0.171875q-0.21875 -0.1875 -0.578125 -0.40625q-0.359375 -0.21875 -0.875 -0.390625q-0.515625 -0.171875 -1.234375 -0.171875q-0.78125 0 -1.4375 0.3125q-0.640625 0.3125 -1.09375 0.921875q-0.453125 0.609375 -0.703125 1.5q-0.25 0.875 -0.25 2.0q0 1.125 0.234375 1.984375q0.25 0.859375 0.703125 1.4375q0.453125 0.578125 1.109375 0.875q0.65625 0.296875 1.484375 0.296875q0.703125 0 1.21875 -0.171875q0.53125 -0.171875 0.890625 -0.390625q0.375 -0.21875 0.609375 -0.390625q0.234375 -0.171875 0.375 -0.171875q0.0625 0 0.109375 0.03125q0.046875 0.015625 0.0625 0.09375q0.03125 0.078125 0.046875 0.21875q0.015625 0.140625 0.015625 0.34375zm9.525696 -2.75q0 1.0 -0.265625 1.84375q-0.265625 0.84375 -0.796875 1.453125q-0.515625 0.609375 -1.3125 0.953125q-0.78125 0.34375 -1.8125 0.34375q-1.015625 0 -1.765625 -0.296875q-0.75 -0.296875 -1.25 -0.875q-0.5 -0.578125 -0.75 -1.390625q-0.25 -0.828125 -0.25 -1.859375q0 -1.0 0.265625 -1.84375q0.265625 -0.84375 0.78125 -1.453125q0.53125 -0.609375 1.3125 -0.953125q0.78125 -0.34375 1.828125 -0.34375q1.015625 0 1.765625 0.3125q0.75 0.296875 1.25 0.875q0.5 0.5625 0.75 1.390625q0.25 0.8125 0.25 1.84375zm-1.578125 0.109375q0 -0.671875 -0.125 -1.265625q-0.125 -0.59375 -0.40625 -1.03125q-0.28125 -0.453125 -0.765625 -0.703125q-0.484375 -0.265625 -1.203125 -0.265625q-0.671875 0 -1.15625 0.234375q-0.46875 0.234375 -0.78125 0.671875q-0.296875 0.4375 -0.453125 1.03125q-0.15625 0.578125 -0.15625 1.28125q0 0.671875 0.125 1.265625q0.125 0.59375 0.40625 1.046875q0.296875 0.4375 0.78125 0.703125q0.484375 0.25 1.203125 0.25q0.65625 0 1.125 -0.234375q0.484375 -0.234375 0.796875 -0.65625q0.3125 -0.4375 0.453125 -1.03125q0.15625 -0.59375 0.15625 -1.296875zm8.588257 -3.578125q0 0.203125 -0.015625 0.34375q0 0.125 -0.03125 0.203125q-0.03125 0.078125 -0.078125 0.125q-0.03125 0.046875 -0.109375 0.046875q-0.0625 0 -0.171875 -0.046875q-0.109375 -0.046875 -0.25 -0.078125q-0.125 -0.046875 -0.296875 -0.078125q-0.15625 -0.046875 -0.34375 -0.046875q-0.21875 0 -0.4375 0.09375q-0.21875 0.09375 -0.46875 0.3125q-0.234375 0.203125 -0.5 0.546875q-0.265625 0.34375 -0.59375 0.84375l0 5.390625q0 0.078125 -0.03125 0.140625q-0.03125 0.046875 -0.125 0.078125q-0.078125 0.03125 -0.21875 0.046875q-0.140625 0.015625 -0.375 0.015625q-0.21875 0 -0.375 -0.015625q-0.140625 -0.015625 -0.234375 -0.046875q-0.078125 -0.03125 -0.109375 -0.078125q-0.03125 -0.0625 -0.03125 -0.140625l0 -8.1875q0 -0.078125 0.03125 -0.125q0.03125 -0.046875 0.109375 -0.09375q0.078125 -0.046875 0.203125 -0.046875q0.140625 -0.015625 0.34375 -0.015625q0.203125 0 0.328125 0.015625q0.140625 0 0.203125 0.046875q0.078125 0.046875 0.109375 0.09375q0.03125 0.046875 0.03125 0.125l0 1.1875q0.34375 -0.484375 0.640625 -0.796875q0.296875 -0.3125 0.546875 -0.484375q0.265625 -0.1875 0.53125 -0.25q0.265625 -0.078125 0.515625 -0.078125q0.125 0 0.265625 0.015625q0.15625 0.015625 0.3125 0.0625q0.171875 0.03125 0.296875 0.078125q0.140625 0.046875 0.1875 0.09375q0.0625 0.046875 0.078125 0.09375q0.03125 0.03125 0.03125 0.09375q0.015625 0.0625 0.015625 0.1875q0.015625 0.125 0.015625 0.328125zm8.707306 3.203125q0 0.359375 -0.1875 0.515625q-0.171875 0.140625 -0.390625 0.140625l-5.375 0q0 0.6875 0.125 1.234375q0.140625 0.546875 0.453125 0.9375q0.328125 0.390625 0.828125 0.609375q0.515625 0.203125 1.25 0.203125q0.59375 0 1.046875 -0.09375q0.453125 -0.09375 0.78125 -0.203125q0.34375 -0.125 0.546875 -0.21875q0.21875 -0.109375 0.328125 -0.109375q0.0625 0 0.109375 0.03125q0.0625 0.03125 0.078125 0.109375q0.03125 0.0625 0.046875 0.171875q0.015625 0.109375 0.015625 0.28125q0 0.109375 -0.015625 0.203125q0 0.078125 -0.015625 0.15625q-0.015625 0.0625 -0.046875 0.125q-0.03125 0.046875 -0.09375 0.09375q-0.046875 0.046875 -0.296875 0.171875q-0.234375 0.109375 -0.625 0.21875q-0.390625 0.109375 -0.90625 0.1875q-0.515625 0.09375 -1.09375 0.09375q-1.015625 0 -1.78125 -0.28125q-0.765625 -0.28125 -1.28125 -0.828125q-0.515625 -0.5625 -0.78125 -1.390625q-0.265625 -0.84375 -0.265625 -1.96875q0 -1.046875 0.265625 -1.890625q0.28125 -0.84375 0.796875 -1.421875q0.515625 -0.59375 1.234375 -0.90625q0.734375 -0.328125 1.640625 -0.328125q0.96875 0 1.640625 0.3125q0.6875 0.3125 1.125 0.84375q0.4375 0.515625 0.640625 1.234375q0.203125 0.703125 0.203125 1.5l0 0.265625zm-1.515625 -0.4375q0.03125 -1.1875 -0.53125 -1.859375q-0.546875 -0.671875 -1.625 -0.671875q-0.5625 0 -0.984375 0.21875q-0.40625 0.203125 -0.6875 0.546875q-0.28125 0.34375 -0.4375 0.8125q-0.15625 0.453125 -0.171875 0.953125l4.4375 0z" fill-rule="nonzero"/><path fill="#ffffff" d="m423.7159 179.04489q0 0.15625 -0.015625 0.28125q-0.015625 0.125 -0.0625 0.203125q-0.046875 0.078125 -0.109375 0.125q-0.0625 0.03125 -0.125 0.03125l-5.65625 0q-0.21875 0 -0.40625 -0.140625q-0.1875 -0.140625 -0.1875 -0.5l0 -10.515625q0 -0.34375 0.1875 -0.484375q0.1875 -0.140625 0.40625 -0.140625l5.59375 0q0.0625 0 0.125 0.03125q0.0625 0.03125 0.09375 0.125q0.03125 0.078125 0.046875 0.203125q0.03125 0.109375 0.03125 0.296875q0 0.171875 -0.03125 0.296875q-0.015625 0.109375 -0.046875 0.1875q-0.03125 0.078125 -0.09375 0.125q-0.0625 0.03125 -0.125 0.03125l-4.609375 0l0 3.703125l3.953125 0q0.0625 0 0.125 0.046875q0.0625 0.03125 0.09375 0.109375q0.046875 0.0625 0.0625 0.203125q0.015625 0.125 0.015625 0.296875q0 0.15625 -0.015625 0.28125q-0.015625 0.109375 -0.0625 0.1875q-0.03125 0.078125 -0.09375 0.109375q-0.0625 0.03125 -0.125 0.03125l-3.953125 0l0 4.21875l4.671875 0q0.0625 0 0.125 0.03125q0.0625 0.03125 0.109375 0.109375q0.046875 0.078125 0.0625 0.203125q0.015625 0.125 0.015625 0.3125zm9.437622 0.40625q0 0.078125 -0.046875 0.140625q-0.03125 0.046875 -0.109375 0.078125q-0.078125 0.03125 -0.234375 0.046875q-0.140625 0.015625 -0.359375 0.015625q-0.21875 0 -0.375 -0.015625q-0.140625 -0.015625 -0.234375 -0.046875q-0.078125 -0.03125 -0.109375 -0.078125q-0.03125 -0.0625 -0.03125 -0.140625l0 -4.796875q0 -0.703125 -0.109375 -1.125q-0.109375 -0.4375 -0.328125 -0.734375q-0.203125 -0.3125 -0.546875 -0.46875q-0.328125 -0.171875 -0.765625 -0.171875q-0.5625 0 -1.125 0.40625q-0.5625 0.390625 -1.1875 1.171875l0 5.71875q0 0.078125 -0.03125 0.140625q-0.03125 0.046875 -0.125 0.078125q-0.078125 0.03125 -0.21875 0.046875q-0.140625 0.015625 -0.375 0.015625q-0.21875 0 -0.375 -0.015625q-0.140625 -0.015625 -0.234375 -0.046875q-0.078125 -0.03125 -0.109375 -0.078125q-0.03125 -0.0625 -0.03125 -0.140625l0 -8.1875q0 -0.078125 0.03125 -0.125q0.03125 -0.046875 0.109375 -0.09375q0.078125 -0.046875 0.203125 -0.046875q0.140625 -0.015625 0.34375 -0.015625q0.203125 0 0.328125 0.015625q0.140625 0 0.203125 0.046875q0.078125 0.046875 0.109375 0.09375q0.03125 0.046875 0.03125 0.125l0 1.078125q0.6875 -0.765625 1.375 -1.125q0.6875 -0.375 1.390625 -0.375q0.828125 0 1.375 0.28125q0.5625 0.28125 0.90625 0.75q0.359375 0.46875 0.5 1.09375q0.15625 0.609375 0.15625 1.484375l0 5.0zm8.629944 -1.234375q0 0.140625 -0.015625 0.265625q0 0.109375 -0.03125 0.1875q-0.015625 0.078125 -0.046875 0.140625q-0.03125 0.0625 -0.140625 0.171875q-0.109375 0.109375 -0.390625 0.28125q-0.265625 0.171875 -0.609375 0.3125q-0.34375 0.125 -0.75 0.203125q-0.390625 0.078125 -0.828125 0.078125q-0.875 0 -1.5625 -0.28125q-0.6875 -0.296875 -1.15625 -0.859375q-0.453125 -0.5625 -0.703125 -1.375q-0.234375 -0.8125 -0.234375 -1.890625q0 -1.203125 0.296875 -2.0625q0.296875 -0.875 0.8125 -1.4375q0.515625 -0.5625 1.203125 -0.828125q0.703125 -0.265625 1.515625 -0.265625q0.390625 0 0.765625 0.078125q0.375 0.0625 0.671875 0.1875q0.3125 0.125 0.546875 0.28125q0.25 0.140625 0.359375 0.25q0.109375 0.109375 0.140625 0.1875q0.046875 0.0625 0.078125 0.15625q0.03125 0.078125 0.03125 0.1875q0.015625 0.109375 0.015625 0.265625q0 0.359375 -0.078125 0.5q-0.078125 0.140625 -0.203125 0.140625q-0.140625 0 -0.3125 -0.140625q-0.171875 -0.15625 -0.453125 -0.34375q-0.265625 -0.1875 -0.65625 -0.328125q-0.390625 -0.15625 -0.921875 -0.15625q-1.078125 0 -1.65625 0.84375q-0.578125 0.828125 -0.578125 2.40625q0 0.796875 0.140625 1.390625q0.15625 0.59375 0.4375 1.0q0.296875 0.40625 0.71875 0.609375q0.4375 0.1875 0.984375 0.1875q0.515625 0 0.90625 -0.15625q0.390625 -0.171875 0.671875 -0.359375q0.296875 -0.203125 0.484375 -0.359375q0.203125 -0.171875 0.3125 -0.171875q0.0625 0 0.109375 0.046875q0.046875 0.03125 0.078125 0.125q0.03125 0.078125 0.03125 0.21875q0.015625 0.125 0.015625 0.3125zm9.623199 -2.953125q0 1.0 -0.265625 1.84375q-0.265625 0.84375 -0.796875 1.453125q-0.515625 0.609375 -1.3125 0.953125q-0.78125 0.34375 -1.8125 0.34375q-1.015625 0 -1.765625 -0.296875q-0.75 -0.296875 -1.25 -0.875q-0.5 -0.578125 -0.75 -1.390625q-0.25 -0.828125 -0.25 -1.859375q0 -1.0 0.265625 -1.84375q0.265625 -0.84375 0.78125 -1.453125q0.53125 -0.609375 1.3125 -0.953125q0.78125 -0.34375 1.828125 -0.34375q1.015625 0 1.765625 0.3125q0.75 0.296875 1.25 0.875q0.5 0.5625 0.75 1.390625q0.25 0.8125 0.25 1.84375zm-1.578125 0.109375q0 -0.671875 -0.125 -1.265625q-0.125 -0.59375 -0.40625 -1.03125q-0.28125 -0.453125 -0.765625 -0.703125q-0.484375 -0.265625 -1.203125 -0.265625q-0.671875 0 -1.15625 0.234375q-0.46875 0.234375 -0.78125 0.671875q-0.296875 0.4375 -0.453125 1.03125q-0.15625 0.578125 -0.15625 1.28125q0 0.671875 0.125 1.265625q0.125 0.59375 0.40625 1.046875q0.296875 0.4375 0.78125 0.703125q0.484375 0.25 1.203125 0.25q0.65625 0 1.125 -0.234375q0.484375 -0.234375 0.796875 -0.65625q0.3125 -0.4375 0.453125 -1.03125q0.15625 -0.59375 0.15625 -1.296875zm10.822632 4.078125q0 0.078125 -0.03125 0.140625q-0.03125 0.046875 -0.125 0.078125q-0.078125 0.03125 -0.21875 0.046875q-0.125 0.015625 -0.3125 0.015625q-0.203125 0 -0.34375 -0.015625q-0.125 -0.015625 -0.203125 -0.046875q-0.078125 -0.03125 -0.109375 -0.078125q-0.03125 -0.0625 -0.03125 -0.140625l0 -1.078125q-0.703125 0.78125 -1.390625 1.140625q-0.671875 0.34375 -1.375 0.34375q-0.8125 0 -1.375 -0.265625q-0.5625 -0.28125 -0.90625 -0.75q-0.34375 -0.46875 -0.5 -1.09375q-0.15625 -0.625 -0.15625 -1.515625l0 -4.96875q0 -0.078125 0.03125 -0.125q0.03125 -0.046875 0.125 -0.09375q0.09375 -0.046875 0.234375 -0.046875q0.15625 -0.015625 0.375 -0.015625q0.21875 0 0.359375 0.015625q0.140625 0 0.21875 0.046875q0.09375 0.046875 0.125 0.09375q0.046875 0.046875 0.046875 0.125l0 4.765625q0 0.71875 0.09375 1.15625q0.109375 0.4375 0.328125 0.75q0.21875 0.296875 0.546875 0.46875q0.328125 0.15625 0.765625 0.15625q0.5625 0 1.125 -0.390625q0.5625 -0.40625 1.1875 -1.1875l0 -5.71875q0 -0.078125 0.03125 -0.125q0.03125 -0.046875 0.125 -0.09375q0.09375 -0.046875 0.234375 -0.046875q0.140625 -0.015625 0.359375 -0.015625q0.21875 0 0.359375 0.015625q0.15625 0 0.234375 0.046875q0.078125 0.046875 0.125 0.09375q0.046875 0.046875 0.046875 0.125l0 8.1875zm9.833069 0q0 0.078125 -0.046875 0.140625q-0.03125 0.046875 -0.109375 0.078125q-0.078125 0.03125 -0.234375 0.046875q-0.140625 0.015625 -0.359375 0.015625q-0.21875 0 -0.375 -0.015625q-0.140625 -0.015625 -0.234375 -0.046875q-0.078125 -0.03125 -0.109375 -0.078125q-0.03125 -0.0625 -0.03125 -0.140625l0 -4.796875q0 -0.703125 -0.109375 -1.125q-0.109375 -0.4375 -0.328125 -0.734375q-0.203125 -0.3125 -0.546875 -0.46875q-0.328125 -0.171875 -0.765625 -0.171875q-0.5625 0 -1.125 0.40625q-0.5625 0.390625 -1.1875 1.171875l0 5.71875q0 0.078125 -0.03125 0.140625q-0.03125 0.046875 -0.125 0.078125q-0.078125 0.03125 -0.21875 0.046875q-0.140625 0.015625 -0.375 0.015625q-0.21875 0 -0.375 -0.015625q-0.140625 -0.015625 -0.234375 -0.046875q-0.078125 -0.03125 -0.109375 -0.078125q-0.03125 -0.0625 -0.03125 -0.140625l0 -8.1875q0 -0.078125 0.03125 -0.125q0.03125 -0.046875 0.109375 -0.09375q0.078125 -0.046875 0.203125 -0.046875q0.140625 -0.015625 0.34375 -0.015625q0.203125 0 0.328125 0.015625q0.140625 0 0.203125 0.046875q0.078125 0.046875 0.109375 0.09375q0.03125 0.046875 0.03125 0.125l0 1.078125q0.6875 -0.765625 1.375 -1.125q0.6875 -0.375 1.390625 -0.375q0.828125 0 1.375 0.28125q0.5625 0.28125 0.90625 0.75q0.359375 0.46875 0.5 1.09375q0.15625 0.609375 0.15625 1.484375l0 5.0zm7.004944 -0.59375q0 0.265625 -0.046875 0.421875q-0.03125 0.15625 -0.109375 0.234375q-0.0625 0.0625 -0.21875 0.125q-0.140625 0.0625 -0.328125 0.09375q-0.1875 0.046875 -0.390625 0.078125q-0.203125 0.03125 -0.421875 0.03125q-0.640625 0 -1.09375 -0.171875q-0.453125 -0.171875 -0.75 -0.5q-0.28125 -0.34375 -0.421875 -0.859375q-0.125 -0.53125 -0.125 -1.25l0 -4.796875l-1.15625 0q-0.125 0 -0.21875 -0.140625q-0.078125 -0.140625 -0.078125 -0.46875q0 -0.171875 0.015625 -0.28125q0.03125 -0.125 0.0625 -0.203125q0.046875 -0.078125 0.09375 -0.109375q0.0625 -0.03125 0.140625 -0.03125l1.140625 0l0 -1.953125q0 -0.0625 0.03125 -0.109375q0.03125 -0.0625 0.109375 -0.109375q0.09375 -0.046875 0.234375 -0.0625q0.15625 -0.015625 0.375 -0.015625q0.21875 0 0.359375 0.015625q0.15625 0.015625 0.234375 0.0625q0.078125 0.046875 0.109375 0.109375q0.046875 0.046875 0.046875 0.109375l0 1.953125l2.109375 0q0.0625 0 0.109375 0.03125q0.0625 0.03125 0.109375 0.109375q0.046875 0.078125 0.0625 0.203125q0.015625 0.109375 0.015625 0.28125q0 0.328125 -0.078125 0.46875q-0.078125 0.140625 -0.21875 0.140625l-2.109375 0l0 4.578125q0 0.84375 0.25 1.28125q0.25 0.4375 0.90625 0.4375q0.203125 0 0.359375 -0.046875q0.171875 -0.046875 0.296875 -0.078125q0.125 -0.046875 0.21875 -0.09375q0.09375 -0.046875 0.171875 -0.046875q0.046875 0 0.078125 0.03125q0.046875 0.015625 0.0625 0.078125q0.03125 0.0625 0.046875 0.171875q0.015625 0.109375 0.015625 0.28125zm8.98349 -3.859375q0 0.359375 -0.1875 0.515625q-0.171875 0.140625 -0.390625 0.140625l-5.375 0q0 0.6875 0.125 1.234375q0.140625 0.546875 0.453125 0.9375q0.328125 0.390625 0.828125 0.609375q0.515625 0.203125 1.25 0.203125q0.59375 0 1.046875 -0.09375q0.453125 -0.09375 0.78125 -0.203125q0.34375 -0.125 0.546875 -0.21875q0.21875 -0.109375 0.328125 -0.109375q0.0625 0 0.109375 0.03125q0.0625 0.03125 0.078125 0.109375q0.03125 0.0625 0.046875 0.171875q0.015625 0.109375 0.015625 0.28125q0 0.109375 -0.015625 0.203125q0 0.078125 -0.015625 0.15625q-0.015625 0.0625 -0.046875 0.125q-0.03125 0.046875 -0.09375 0.09375q-0.046875 0.046875 -0.296875 0.171875q-0.234375 0.109375 -0.625 0.21875q-0.390625 0.109375 -0.90625 0.1875q-0.515625 0.09375 -1.09375 0.09375q-1.015625 0 -1.78125 -0.28125q-0.765625 -0.28125 -1.28125 -0.828125q-0.515625 -0.5625 -0.78125 -1.390625q-0.265625 -0.84375 -0.265625 -1.96875q0 -1.046875 0.265625 -1.890625q0.28125 -0.84375 0.796875 -1.421875q0.515625 -0.59375 1.234375 -0.90625q0.734375 -0.328125 1.640625 -0.328125q0.96875 0 1.640625 0.3125q0.6875 0.3125 1.125 0.84375q0.4375 0.515625 0.640625 1.234375q0.203125 0.703125 0.203125 1.5l0 0.265625zm-1.515625 -0.4375q0.03125 -1.1875 -0.53125 -1.859375q-0.546875 -0.671875 -1.625 -0.671875q-0.5625 0 -0.984375 0.21875q-0.40625 0.203125 -0.6875 0.546875q-0.28125 0.34375 -0.4375 0.8125q-0.15625 0.453125 -0.171875 0.953125l4.4375 0zm8.595062 -2.765625q0 0.203125 -0.015625 0.34375q0 0.125 -0.03125 0.203125q-0.03125 0.078125 -0.078125 0.125q-0.03125 0.046875 -0.109375 0.046875q-0.0625 0 -0.171875 -0.046875q-0.109375 -0.046875 -0.25 -0.078125q-0.125 -0.046875 -0.296875 -0.078125q-0.15625 -0.046875 -0.34375 -0.046875q-0.21875 0 -0.4375 0.09375q-0.21875 0.09375 -0.46875 0.3125q-0.234375 0.203125 -0.5 0.546875q-0.265625 0.34375 -0.59375 0.84375l0 5.390625q0 0.078125 -0.03125 0.140625q-0.03125 0.046875 -0.125 0.078125q-0.078125 0.03125 -0.21875 0.046875q-0.140625 0.015625 -0.375 0.015625q-0.21875 0 -0.375 -0.015625q-0.140625 -0.015625 -0.234375 -0.046875q-0.078125 -0.03125 -0.109375 -0.078125q-0.03125 -0.0625 -0.03125 -0.140625l0 -8.1875q0 -0.078125 0.03125 -0.125q0.03125 -0.046875 0.109375 -0.09375q0.078125 -0.046875 0.203125 -0.046875q0.140625 -0.015625 0.34375 -0.015625q0.203125 0 0.328125 0.015625q0.140625 0 0.203125 0.046875q0.078125 0.046875 0.109375 0.09375q0.03125 0.046875 0.03125 0.125l0 1.1875q0.34375 -0.484375 0.640625 -0.796875q0.296875 -0.3125 0.546875 -0.484375q0.265625 -0.1875 0.53125 -0.25q0.265625 -0.078125 0.515625 -0.078125q0.125 0 0.265625 0.015625q0.15625 0.015625 0.3125 0.0625q0.171875 0.03125 0.296875 0.078125q0.140625 0.046875 0.1875 0.09375q0.0625 0.046875 0.078125 0.09375q0.03125 0.03125 0.03125 0.09375q0.015625 0.0625 0.015625 0.1875q0.015625 0.125 0.015625 0.328125z" fill-rule="nonzero"/></g></svg>